<?xml version="1.0" encoding="utf-8"?>
<!-- Generator: Adobe Illustrator 23.0.3, SVG Export Plug-In . SVG Version: 6.00 Build 0)  -->
<svg version="1.1" id="Calque_1" xmlns="http://www.w3.org/2000/svg" xmlns:xlink="http://www.w3.org/1999/xlink" x="0px" y="0px"
	 viewBox="0 0 280 280" style="enable-background:new 0 0 280 280;" xml:space="preserve">
<style type="text/css">
	.st0{fill:#FE008D;}
</style>
<g transform="translate(0.000000,280.000000) scale(0.100000,-0.100000)">
	<path class="st0" d="M1281,2260c-93-132-183-350-212-510c-17-97-17-353,0-450c23-127,25-121-46-136c-128-26-217-84-258-168
		c-25-51-27-64-23-135c5-84,37-169,78-206c20-18,20-17-1,31c-45,101-22,207,63,293c55,55,99,77,212,106c62,16,90,28,88,37
		c-2,7-6,94-9,193c-6,193,3,291,38,410c23,78,107,254,142,298l22,28l50-33c70-46,164-143,204-211c105-177,141-479,81-672
		c-44-139-128-269-217-337c-102-77-336-167-648-249c-104-28-194-52-200-55c-5-2,33-1,85,2c437,27,937,228,1205,485
		c91,87,131,153,121,195c-15,60-58,39-161-78c-42-49-81-88-87-88c-5,0,0,12,12,28c232,298,300,667,184,995c-30,82-70,157-85,157
		c-17,0-116-106-156-166c-20-30-39-54-42-54c-4,0-24,22-44,49c-53,70-182,190-267,250c-40,28-76,51-80,51S1304,2293,1281,2260z
		 M1933,1925c54-207,48-414-18-610c-27-83-123-283-155-325c-32-43-32-14,0,36c62,98,100,262,100,429c0,119-12,199-45,302
		c-22,71-23,78-8,107c26,52,95,138,103,129C1914,1989,1924,1958,1933,1925z"/>
</g>
</svg>
